<?xml version="1.0"?>
<svg version="1.1" xmlns="http://www.w3.org/2000/svg" width="600" height="200" style="border: dashed 2px #aaa"><path fill="#c62cd4" d="M17.24,133.6l0-4.76l4.2-1.68l0-26.32l-4.2-1.68l0-4.76l17.08-0.28l0,5.04l-4.2,1.68l0,26.32l4.2,1.68l0,4.76l-17.08,0z M54.28456,103.36l0.392,3.864s5.32-4.312,10.304-4.312c5.432,0,8.512,3.864,8.512,9.968l0,14.84l3.92,1.4l0,4.48l-15.4,0l0-4.48l3.08-1.4l0-13.328c0-2.576-1.456-4.48-3.808-4.48c-3.472,0-5.992,3.192-5.992,3.192l0,14.616l3.08,1.4l0,4.48l-15.96,0l0-4.48l4.48-1.4l0-18.2l-4.48-1.4l0-4.48z M104.54512,126.432l2.016,4.256c-2.744,2.016-5.88,3.472-9.52,3.472c-6.44,0-8.288-4.48-8.288-10.92l0-12.88l-5.208,0l0-5.432l5.208-0.728l0-7.728l8.4-1.512l0,9.24l7.84,0l0,6.16l-7.84,0l0,12.32c0,3.584,0.616,5.04,2.968,5.04c1.512,0,3.696-0.896,4.424-1.288z M140.30168,120.328l-18.592,0c0.336,4.48,2.912,7.112,6.776,7.112c4.648,0,9.408-2.632,9.408-2.632l2.408,4.648s-5.6,4.704-12.768,4.704c-9.632,0-14.56-5.6-14.56-15.12c0-9.8,5.544-16.24,14.952-16.24c8.344,0,12.712,5.152,12.712,13.16c0,2.128-0.336,4.2-0.336,4.368z M121.82168,115.12l10.136,0c0-3.192-1.344-5.6-4.592-5.6c-3.136,0-5.096,2.296-5.544,5.6z M160.54624,127.72l5.04,1.4l0,4.48l-17.976,0l0-4.48l4.48-1.4l0-31.472l-4.48-1.12l0-4.48l12.936-0.448l0,37.52z M183.8148,127.72l5.04,1.4l0,4.48l-17.976,0l0-4.48l4.48-1.4l0-31.472l-4.48-1.12l0-4.48l12.936-0.448l0,37.52z M198.45936,94.12c0-3.192,2.296-5.04,4.816-5.04c2.912,0,4.704,1.512,4.704,5.04c0,3.304-2.408,5.096-4.704,5.096c-3.024,0-4.816-1.792-4.816-5.096z M207.86736,127.72l3.92,1.4l0,4.48l-16.8,0l0-4.48l4.48-1.4l0-18.2l-4.48-1.4l0-4.48l12.88-0.28l0,24.36z M230.23992,128.56l8.288,0c7.112,0,11.2,3.08,11.2,8.68c0,6.16-4.928,10.64-15.68,10.64c-8.792,0-14.448-1.96-14.448-8.12c0-4.816,5.88-6.72,5.88-6.72s-3.36-0.504-3.36-3.696c0-1.624,2.24-5.264,2.912-6.328c-1.344-0.896-4.312-3.304-4.312-8.736c0-7.672,5.768-11.48,13.44-11.48c3.248,0,5.544,0.84,6.608,1.344l9.632-0.224l0,4.48l-4.592,0.784c0.112,0.504,0.952,2.016,0.952,4.424c0,8.12-5.712,11.48-13.44,11.48c-1.512,0-2.632-0.28-2.856-0.28z M233.87992,108.568c-3.36,0-4.76,1.792-4.76,5.32c0,3.36,1.288,5.6,4.48,5.6c3.528,0,4.76-1.848,4.76-5.6c0-3.528-1.4-5.32-4.48-5.32z M236.28792,134.72l-5.88,0s-2.688,1.232-2.688,3.64c0,2.8,2.408,3.36,7,3.36c5.04,0,7.168-1.12,7.168-3.808c0-2.52-1.848-3.192-5.6-3.192z M284.70048,120.328l-18.592,0c0.336,4.48,2.912,7.112,6.776,7.112c4.648,0,9.408-2.632,9.408-2.632l2.408,4.648s-5.6,4.704-12.768,4.704c-9.632,0-14.56-5.6-14.56-15.12c0-9.8,5.544-16.24,14.952-16.24c8.344,0,12.712,5.152,12.712,13.16c0,2.128-0.336,4.2-0.336,4.368z M266.22048,115.12l10.136,0c0-3.192-1.344-5.6-4.592-5.6c-3.136,0-5.096,2.296-5.544,5.6z M304.72104,103.36l0.392,3.864s5.32-4.312,10.304-4.312c5.432,0,8.512,3.864,8.512,9.968l0,14.84l3.92,1.4l0,4.48l-15.4,0l0-4.48l3.08-1.4l0-13.328c0-2.576-1.456-4.48-3.808-4.48c-3.472,0-5.992,3.192-5.992,3.192l0,14.616l3.08,1.4l0,4.48l-15.96,0l0-4.48l4.48-1.4l0-18.2l-4.48-1.4l0-4.48z M354.9816,126.432l2.016,4.256c-2.744,2.016-5.88,3.472-9.52,3.472c-6.44,0-8.288-4.48-8.288-10.92l0-12.88l-5.208,0l0-5.432l5.208-0.728l0-7.728l8.4-1.512l0,9.24l7.84,0l0,6.16l-7.84,0l0,12.32c0,3.584,0.616,5.04,2.968,5.04c1.512,0,3.696-0.896,4.424-1.288z M373.88216,127.16l0-26.32l-5.32,0l-1.4,5.32l-5.152,0l0-12.04l32.48,0l0,12.04l-5.208,0l-1.4-5.32l-5.32,0l0,26.32l5.32,1.68l0,4.76l-19.32,0l0-4.76z M412.66272,103.36l0.504,3.864s4.032-4.424,7.784-4.424c3.08,0,5.208,1.008,5.208,1.008l-0.448,10.752l-5.04,0l-0.84-4.76c-3.248,0-6.048,3.136-6.048,3.136l0,14.784l5.6,1.4l0,4.48l-18.48,0l0-4.48l4.48-1.4l0-18.2l-4.48-1.4l0-4.48z M451.38728,133.6l-1.008-3.64s-4.312,4.2-9.072,4.2c-5.432,0-8.736-3.192-8.736-8.792c0-6.608,4.984-9.24,13.496-9.24l3.92,0l0-3.08c0-2.856-1.512-4.088-4.312-4.088c-2.856,0-4.928,0.84-4.928,0.84l-0.84,3.528l-5.04,0l-0.392-8.288s6.776-2.24,12.152-2.24c8.512,0,11.76,2.968,11.76,11.088l0,13.832l4.2,1.008l0,4.48z M449.98728,120.888l-3.192,0c-4.368,0-6.104,1.12-6.104,3.64c0,2.128,1.176,3.36,3.304,3.36c2.968,0,5.992-3.248,5.992-3.248l0-3.752z M490.55984,133.6l-0.504-2.968c-0.784,0.784-3.64,3.528-8.456,3.528c-7.84,0-11.48-5.712-11.48-14.952c0-10.528,5.04-16.408,15.288-16.408c1.344,0,2.968,0.28,4.2,0.56l0-7.112l-4.48-1.12l0-4.48l12.88-0.448l0,37.408l4.48,1.12l0,4.48z M489.60784,124.248l0-13.888c-1.064-0.504-2.744-0.84-4.368-0.84c-4.76,0-6.44,3.64-6.44,9.24c0,5.656,1.568,8.68,5.376,8.68c3.584,0,5.432-3.192,5.432-3.192z M536.7884,120.328l-18.592,0c0.336,4.48,2.912,7.112,6.776,7.112c4.648,0,9.408-2.632,9.408-2.632l2.408,4.648s-5.6,4.704-12.768,4.704c-9.632,0-14.56-5.6-14.56-15.12c0-9.8,5.544-16.24,14.952-16.24c8.344,0,12.712,5.152,12.712,13.16c0,2.128-0.336,4.2-0.336,4.368z M518.3084,115.12l10.136,0c0-3.192-1.344-5.6-4.592-5.6c-3.136,0-5.096,2.296-5.544,5.6z M556.69696,103.36l0.504,3.864s4.032-4.424,7.784-4.424c3.08,0,5.208,1.008,5.208,1.008l-0.448,10.752l-5.04,0l-0.84-4.76c-3.248,0-6.048,3.136-6.048,3.136l0,14.784l5.6,1.4l0,4.48l-18.48,0l0-4.48l4.48-1.4l0-18.2l-4.48-1.4l0-4.48z"/><path fill="#1978bd" d=""/></svg>
