<?xml version="1.0"?>
<svg version="1.1" xmlns="http://www.w3.org/2000/svg" width="400"
     height="200" >
    <path fill="#c62cd4"
          d="M16.836,121.636l2.268,0l0-25.308l-2.268,0l0,25.308z M24.96624,121.6l2.232,0l0-15.264q0-3.024,2.304-5.4q2.304-2.304,5.328-2.304t5.4,2.304q2.304,2.376,2.304,5.4l0,15.264l2.232,0l0-15.264q0-4.104-2.916-7.02t-7.02-2.916q-4.032,0-6.948,2.916t-2.916,7.02l0,15.264z M68.66448,96.4l-19.512,0l0,2.196l8.856,0l0,23.076l2.232,0l0-23.076l8.424,0l0-2.196z M75.28272,114.688q0-1.728,1.224-3.132q1.224-1.476,2.952-1.476l0.468,0l6.732,0l0-2.232l-6.732,0l-0.468,0q-1.836-0.36-3.006-1.584t-1.17-2.916q0-2.124,1.242-3.366t3.402-1.242l12.24,0l0-2.268l-12.24,0q-2.772,0-4.824,2.052q-2.052,1.98-2.052,4.824q0,1.8,0.684,3.276t2.016,2.124q-1.332,0.972-2.016,2.556t-0.684,3.384q0,2.808,2.052,4.788q2.088,2.088,4.824,2.088l12.24,0l0-2.376l-12.24,0q-2.16,0-3.402-1.224t-1.242-3.276z M96.87696,121.672l17.604,0l0-1.836l-15.372,0l0-23.436l-2.232,0l0,25.272z M118.7952,121.672l17.604,0l0-1.836l-15.372,0l0-23.436l-2.232,0l0,25.272z M140.71344,121.636l2.268,0l0-25.308l-2.268,0l0,25.308z M160.57968,98.56l6.948,0l0-2.268l-6.948,0q-5.184,0-8.784,3.672q-3.636,3.708-3.636,9.252q0,5.148,3.636,8.784t8.784,3.636l4.608,0l2.34,0l0-2.304l0-11.52l-2.34,0l-5.508,0l0,2.304l5.508,0l0,9.216l-4.608,0q-4.104,0-7.092-2.988t-2.988-7.128q0-4.5,2.988-7.596q2.952-3.06,7.092-3.06z M174.97392,114.688q0-1.728,1.224-3.132q1.224-1.476,2.952-1.476l0.468,0l6.732,0l0-2.232l-6.732,0l-0.468,0q-1.836-0.36-3.006-1.584t-1.17-2.916q0-2.124,1.242-3.366t3.402-1.242l12.24,0l0-2.268l-12.24,0q-2.772,0-4.824,2.052q-2.052,1.98-2.052,4.824q0,1.8,0.684,3.276t2.016,2.124q-1.332,0.972-2.016,2.556t-0.684,3.384q0,2.808,2.052,4.788q2.088,2.088,4.824,2.088l12.24,0l0-2.376l-12.24,0q-2.16,0-3.402-1.224t-1.242-3.276z M196.38816,121.6l2.232,0l0-15.264q0-3.024,2.304-5.4q2.304-2.304,5.328-2.304t5.4,2.304q2.304,2.376,2.304,5.4l0,15.264l2.232,0l0-15.264q0-4.104-2.916-7.02t-7.02-2.916q-4.032,0-6.948,2.916t-2.916,7.02l0,15.264z M240.0864,96.4l-19.512,0l0,2.196l8.856,0l0,23.076l2.232,0l0-23.076l8.424,0l0-2.196z M263.01264,96.4l-19.512,0l0,2.196l8.856,0l0,23.076l2.232,0l0-23.076l8.424,0l0-2.196z M278.48688,108.964l2.7,0q2.736,0,4.536-1.8t1.8-4.536q0-2.412-1.8-4.32q-1.908-1.98-4.536-1.98l-11.268,0l-2.232,0l0,25.272l2.232,0l0-12.636l5.868,0l7.668,12.636l2.7,0z M269.91888,106.732l0-8.136l11.268,0q1.656,0,2.916,1.188q1.188,1.188,1.188,2.844q0,1.728-1.188,2.916q-1.26,1.188-2.916,1.188l-11.268,0z M302.20512,96.256q-4.032,0-6.768,2.916q-2.7,2.88-2.7,7.02l0,15.408l2.268,0l0-11.304l14.472,0l0,11.304l2.268,0l0-15.408q0-4.14-2.7-7.02q-2.808-2.916-6.84-2.916z M309.47712,108.064l-14.472,0l0-1.872q0-3.096,2.088-5.364q2.124-2.304,5.112-2.304t5.184,2.304q2.088,2.268,2.088,5.364l0,1.872z M325.16736,96.364l-5.508,0l-1.368,0l-0.9,0l0,25.236l0.9,0l1.368,0l5.508,0q5.256,0,9-3.672q3.852-3.78,3.852-9.18q0-5.112-3.852-8.784q-3.78-3.6-9-3.6z M325.16736,119.332l-5.508,0l0-20.628l5.508,0q4.5,0,7.56,2.952q3.024,2.952,3.024,7.092q0,4.5-3.024,7.524q-3.06,3.06-7.56,3.06z M345.2496,114.688q0-1.728,1.224-3.132q1.224-1.476,2.952-1.476l0.468,0l6.732,0l0-2.232l-6.732,0l-0.468,0q-1.836-0.36-3.006-1.584t-1.17-2.916q0-2.124,1.242-3.366t3.402-1.242l12.24,0l0-2.268l-12.24,0q-2.772,0-4.824,2.052q-2.052,1.98-2.052,4.824q0,1.8,0.684,3.276t2.016,2.124q-1.332,0.972-2.016,2.556t-0.684,3.384q0,2.808,2.052,4.788q2.088,2.088,4.824,2.088l12.24,0l0-2.376l-12.24,0q-2.16,0-3.402-1.224t-1.242-3.276z M377.64384,108.964l2.7,0q2.736,0,4.536-1.8t1.8-4.536q0-2.412-1.8-4.32q-1.908-1.98-4.536-1.98l-11.268,0l-2.232,0l0,25.272l2.232,0l0-12.636l5.868,0l7.668,12.636l2.7,0z M369.07584,106.732l0-8.136l11.268,0q1.656,0,2.916,1.188q1.188,1.188,1.188,2.844q0,1.728-1.188,2.916q-1.26,1.188-2.916,1.188l-11.268,0z"/>
    <path fill="#1978bd" d=""/>
</svg>
