<svg height="682pt" viewBox="-21 -21 682.66669 682" width="682pt" xmlns="http://www.w3.org/2000/svg"><path d="m205.058594 488.914062c16.847656-.914062 33.53125-2.792968 50.011718-5.652343v156.359375h-50.011718zm-205.058594 150.707032h50.015625v-150.042969h-50.015625zm102.53125-150.042969v150.042969h50.011719v-150.042969zm408.859375 150.042969h50.015625v-380.171875c-13.980469 26.742187-30.6875 51.847656-50.015625 75.082031zm-102.523437 0h50.007812v-251.992188c-15.808594 13.457032-32.503906 25.6875-50.007812 36.660156zm-102.53125-168.578125v168.578125h50.015624v-187.316406c-2.683593 1.203124-5.378906 2.390624-8.09375 3.535156-13.761718 5.820312-27.75 10.878906-41.921874 15.203125zm228.453124-470.710938-106.097656 106.09375 35.367188 35.367188 43.980468-43.980469c-18.5 163.917969-157.960937 291.734375-326.742187 291.734375h-181.296875v50.015625h181.296875c101.199219 0 196.339844-39.410156 267.898437-110.96875 63.429688-63.429688 101.578126-145.410156 109.421876-233.699219l46.015624 46.015625 35.367188-35.367187zm0 0"/></svg>